<?xml version="1.0" standalone="no"?>
<!DOCTYPE svg PUBLIC "-//W3C//DTD SVG 20010904//EN"
 "http://www.w3.org/TR/2001/REC-SVG-20010904/DTD/svg10.dtd">
<svg version="1.0" xmlns="http://www.w3.org/2000/svg"
 width="512.000000pt" height="512.000000pt" viewBox="0 0 512.000000 512.000000"
 preserveAspectRatio="xMidYMid meet">
<metadata>
Created by potrace 1.14, written by Peter Selinger 2001-2017
</metadata>
<g transform="translate(0.000000,512.000000) scale(0.100000,-0.100000)"
fill="#000000" stroke="none">
<path d="M2706 5053 c-2 -2 -52 -5 -112 -8 -60 -2 -109 -4 -109 -5 0 -1 -34
-4 -75 -6 -117 -7 -134 -9 -147 -17 -7 -5 -13 -4 -13 0 0 5 -9 9 -20 9 -11 0
-20 -3 -20 -6 0 -3 -66 -6 -146 -8 -80 -1 -150 -5 -155 -8 -5 -3 -9 1 -9 8 0
9 -3 10 -8 2 -4 -6 -16 -10 -27 -8 -11 2 -23 -2 -27 -9 -6 -9 -8 -9 -8 0 0 7
-9 10 -22 7 -13 -3 -52 -7 -88 -11 -85 -7 -115 -11 -115 -12 0 -1 -27 -4 -60
-6 -33 -2 -78 -8 -100 -11 -22 -4 -50 -8 -62 -7 -13 0 -23 -4 -23 -9 0 -5 -5
-6 -10 -3 -6 4 -34 1 -63 -5 -91 -18 -112 -22 -124 -23 -7 0 -13 -3 -13 -6 0
-3 -10 -7 -22 -7 -22 -2 -63 -11 -63 -14 0 -2 -20 -7 -59 -15 -16 -3 -33 -8
-38 -11 -5 -3 -21 -8 -36 -11 -41 -8 -57 -11 -59 -13 -2 -2 -6 -3 -10 -4 -31
-8 -102 -30 -118 -36 -11 -5 -58 -21 -105 -36 -47 -16 -88 -33 -92 -39 -4 -5
-8 -6 -8 -2 0 4 -10 2 -22 -5 -13 -7 -26 -11 -30 -10 -5 1 -8 -2 -8 -8 0 -6
-3 -9 -7 -8 -5 1 -24 -7 -43 -17 -19 -11 -44 -24 -55 -30 -10 -5 -28 -28 -40
-50 -11 -22 -23 -42 -28 -43 -4 -2 -4 -8 -1 -13 3 -6 1 -15 -4 -22 -5 -7 -19
-50 -32 -97 -12 -47 -26 -89 -30 -94 -5 -5 -5 -17 1 -28 7 -14 6 -20 -6 -24
-9 -4 -14 -12 -11 -19 2 -7 2 -16 -2 -19 -6 -7 -11 -28 -14 -61 -1 -11 -6 -26
-11 -32 -5 -7 -7 -19 -4 -28 4 -8 2 -17 -3 -20 -5 -3 -7 -12 -3 -20 3 -8 1
-15 -5 -15 -5 0 -8 -11 -7 -25 2 -14 -1 -27 -5 -30 -5 -3 -6 -13 -3 -22 4 -10
2 -14 -4 -10 -13 8 -11 -36 2 -45 6 -5 5 -8 -4 -8 -7 0 -11 -6 -7 -15 3 -8 2
-15 -2 -15 -5 0 -8 -10 -9 -22 -1 -23 -7 -79 -18 -167 -3 -24 -8 -48 -12 -54
-3 -6 -1 -7 5 -3 7 4 12 2 12 -3 0 -6 -4 -11 -8 -11 -5 0 -8 -10 -7 -22 1 -13
-2 -31 -7 -40 -6 -12 -5 -18 3 -18 8 0 8 -4 2 -12 -5 -7 -8 -25 -7 -41 2 -19
-1 -25 -9 -20 -9 5 -9 3 0 -8 10 -12 10 -18 1 -27 -7 -7 -8 -12 -2 -12 11 0
11 -81 0 -99 -4 -6 -2 -11 4 -11 7 0 8 -6 0 -19 -7 -14 -7 -22 0 -26 7 -5 8
-11 1 -19 -6 -7 -6 -17 -1 -26 5 -9 5 -19 -2 -27 -7 -9 -7 -13 1 -13 9 0 9 -5
1 -20 -6 -11 -7 -20 -3 -20 12 0 10 -64 -2 -72 -7 -5 -7 -8 0 -8 6 0 10 -28
10 -65 0 -38 4 -65 10 -65 5 0 4 -4 -4 -9 -8 -5 -10 -14 -5 -22 4 -7 8 -25 8
-40 1 -15 4 -30 8 -34 3 -4 2 -20 -2 -36 -5 -16 -6 -29 -2 -29 4 0 8 -28 9
-63 3 -71 5 -87 16 -104 5 -7 4 -13 -2 -13 -7 0 -7 -8 -2 -23 5 -13 10 -39 12
-58 2 -19 8 -40 13 -48 9 -12 8 -13 -3 -6 -10 5 -12 4 -7 -3 9 -14 15 -45 18
-89 1 -18 5 -33 8 -33 7 0 8 -8 11 -55 1 -14 6 -25 11 -25 6 0 8 -9 5 -20 -3
-11 -1 -20 3 -20 5 0 7 -9 5 -20 -2 -11 1 -20 7 -20 6 0 8 -9 5 -20 -3 -13 -1
-18 6 -13 6 4 8 0 4 -10 -3 -9 -2 -17 3 -19 4 -2 10 -14 12 -28 1 -14 10 -30
18 -37 10 -8 11 -12 3 -13 -9 0 -6 -11 7 -36 11 -19 18 -39 15 -45 -4 -5 -1
-9 4 -9 6 0 11 -9 11 -19 0 -11 5 -21 10 -23 6 -2 12 -13 13 -26 0 -12 4 -22
7 -22 3 0 14 -20 24 -45 11 -25 23 -45 27 -45 5 0 5 -7 2 -17 -4 -11 -3 -14 5
-9 7 4 12 1 12 -9 0 -9 7 -23 15 -32 8 -8 12 -19 9 -25 -3 -5 3 -18 15 -29 12
-11 21 -24 21 -30 0 -6 7 -17 15 -26 8 -8 13 -18 10 -23 -3 -4 2 -11 11 -14 8
-3 13 -10 10 -15 -3 -5 1 -12 10 -15 8 -3 13 -10 9 -15 -3 -6 3 -18 13 -28 17
-16 34 -47 36 -65 1 -3 5 -10 10 -15 5 -5 6 -2 2 7 -4 8 0 6 8 -4 9 -11 16
-26 16 -33 0 -7 4 -13 10 -13 5 0 12 -11 16 -25 3 -14 9 -23 14 -20 4 2 12 -7
18 -20 7 -14 16 -25 22 -25 5 0 9 -3 9 -7 -3 -19 2 -34 9 -29 4 2 14 -9 21
-25 7 -16 19 -29 28 -29 8 0 13 -5 11 -11 -2 -7 13 -30 34 -52 21 -23 38 -45
38 -50 0 -4 5 -5 10 -2 5 3 10 1 10 -5 0 -14 127 -139 135 -132 3 3 5 0 5 -6
0 -6 9 -14 20 -17 11 -3 20 -13 20 -21 0 -8 4 -13 9 -10 5 3 12 -1 15 -10 3
-8 10 -13 15 -9 5 3 12 -4 16 -15 3 -11 10 -19 15 -17 4 1 17 -9 29 -22 12
-13 21 -20 21 -16 0 4 11 -3 24 -16 36 -37 77 -69 87 -69 5 0 9 -7 9 -15 0 -8
4 -15 10 -15 5 0 20 -11 33 -24 14 -14 28 -22 31 -19 3 4 6 -1 6 -10 0 -8 9
-18 19 -22 11 -3 22 -12 25 -20 3 -8 10 -15 16 -15 15 0 40 -25 40 -40 0 -7 7
-10 14 -7 9 4 17 -2 21 -14 4 -10 11 -17 16 -14 5 4 12 -1 15 -9 3 -9 12 -16
20 -16 7 0 18 -9 24 -20 6 -11 18 -20 26 -20 8 0 12 -4 9 -10 -3 -5 1 -10 9
-10 9 0 16 -4 16 -10 0 -5 7 -10 15 -10 8 0 15 -7 15 -15 0 -9 6 -12 17 -8 10
4 14 2 10 -4 -4 -7 6 -17 23 -25 16 -7 30 -16 30 -20 0 -5 7 -8 15 -8 8 0 15
-4 15 -10 0 -5 7 -10 15 -10 8 0 15 -4 15 -10 0 -5 7 -10 15 -10 8 0 15 -4 15
-10 0 -5 3 -9 8 -8 4 1 31 -10 60 -24 28 -15 52 -24 52 -20 0 4 4 2 8 -4 8
-12 123 -60 135 -56 4 1 7 -3 7 -8 0 -5 3 -9 8 -8 4 1 20 -4 35 -10 16 -7 35
-12 43 -12 8 0 14 -5 14 -12 0 -6 3 -8 7 -5 3 4 15 -1 26 -10 11 -10 17 -12
13 -5 -9 16 -1 15 34 -3 17 -9 30 -13 30 -9 0 4 8 0 17 -7 14 -12 16 -12 8 0
-6 11 -5 12 6 5 17 -10 129 -12 122 -1 -2 4 0 7 6 7 5 0 13 -5 16 -10 5 -8 11
-8 19 0 7 5 26 11 42 12 16 1 35 6 42 11 8 6 12 5 12 -2 0 -8 5 -9 19 -1 11 5
27 7 37 3 10 -4 15 -2 11 3 -3 6 7 9 24 8 16 -1 31 2 34 7 3 4 12 6 20 2 8 -3
15 0 15 7 0 10 3 10 15 0 12 -10 15 -10 15 0 0 7 7 10 15 6 8 -3 21 1 29 9 11
11 16 12 19 2 4 -9 6 -9 6 1 1 6 12 12 26 12 13 0 29 8 34 17 7 11 11 13 11 5
0 -9 9 -7 29 7 16 12 41 22 54 23 14 1 23 6 21 10 -3 4 1 8 9 8 8 0 18 7 21
16 4 12 10 13 19 6 14 -11 41 10 29 24 -4 4 -1 4 6 0 7 -4 25 2 42 14 16 12
34 18 40 15 5 -3 10 -2 10 3 0 5 13 15 30 22 16 7 28 16 25 20 -3 4 3 7 13 6
10 0 16 5 14 13 -2 11 0 12 10 4 9 -8 16 -7 25 2 6 7 9 16 5 19 -3 4 1 4 11 0
9 -3 17 -2 17 4 0 5 13 12 30 15 21 5 28 11 24 22 -4 11 -2 13 9 10 8 -4 22 1
31 10 9 9 21 13 28 9 8 -5 9 -2 5 9 -4 11 -2 14 8 10 8 -3 18 2 21 11 5 13 9
14 21 5 11 -10 13 -9 11 2 -2 8 3 13 10 12 6 -2 12 2 12 8 0 6 7 8 16 5 8 -3
13 -2 10 3 -3 5 2 15 11 22 12 10 14 10 9 2 -12 -21 12 -15 27 7 8 11 17 17
20 14 3 -4 13 1 22 10 9 9 21 14 26 11 5 -4 9 -1 9 4 0 6 5 11 11 11 7 0 18 8
26 18 8 9 12 12 9 6 -3 -6 1 -11 8 -11 8 0 12 6 9 14 -4 9 0 11 13 6 12 -4 15
-3 10 5 -5 8 3 14 24 18 17 4 35 15 41 26 6 11 17 17 24 14 7 -2 16 2 19 10 3
9 11 12 17 8 8 -4 9 -3 5 4 -4 7 -2 12 4 12 6 0 8 5 4 12 -5 9 -2 8 10 -1 15
-13 18 -12 23 7 3 12 9 23 14 23 5 1 12 2 17 3 13 2 51 44 44 50 -5 6 14 10
31 7 5 -1 6 3 2 9 -3 5 -1 10 5 10 6 0 8 5 5 10 -3 6 -1 10 4 10 14 0 57 43
53 53 -1 5 2 6 8 2 6 -3 14 4 19 17 6 13 10 19 10 15 1 -4 12 4 25 18 14 15
30 24 35 20 7 -3 8 0 5 9 -4 9 1 18 10 22 9 3 13 10 10 15 -5 8 10 13 29 10 5
-1 6 3 2 9 -8 12 20 42 30 32 4 -4 5 0 3 8 -2 8 2 14 9 13 8 -2 10 4 6 14 -4
11 -3 14 5 9 11 -6 13 -2 12 19 -1 3 15 21 35 39 19 18 35 37 35 42 0 14 37
43 46 36 4 -4 4 -2 1 4 -3 6 3 20 13 32 11 12 20 26 20 32 0 5 5 10 11 10 6 0
9 7 6 14 -4 10 -1 13 8 10 10 -4 13 0 10 15 -2 11 -1 20 3 20 21 -3 31 3 26
15 -3 8 0 17 7 22 8 5 10 3 4 -6 -5 -8 -4 -11 3 -6 6 3 9 16 7 27 -3 15 0 19
10 15 8 -3 14 0 12 7 -1 7 4 11 12 9 11 -2 12 0 4 10 -8 9 -7 16 2 25 7 6 16
9 19 5 4 -3 4 2 0 13 -6 14 -4 17 8 13 12 -5 14 0 10 20 -4 20 -2 24 11 19 12
-4 15 -1 12 14 -2 11 2 22 10 25 7 3 11 12 8 20 -3 8 0 14 6 14 6 0 11 9 11
20 0 11 5 20 11 20 6 0 8 7 5 16 -3 8 -2 12 4 9 6 -3 10 -1 10 5 0 6 5 8 13 4
9 -6 9 -4 -1 8 -8 10 -9 17 -2 20 5 1 12 14 15 27 2 14 9 29 15 35 5 5 10 19
10 31 0 17 2 18 11 5 8 -12 9 -10 4 8 -3 12 -2 22 3 22 5 0 12 9 15 20 3 13 1
18 -6 13 -7 -4 -6 1 2 10 7 9 11 24 7 32 -3 9 -2 13 4 10 6 -3 10 -1 10 5 0 6
4 8 10 5 6 -3 7 1 4 9 -3 9 -11 13 -18 9 -6 -4 -5 1 3 10 15 19 26 23 15 5 -4
-7 -3 -8 5 -4 9 6 9 11 1 21 -8 10 -8 15 0 20 6 4 9 13 6 20 -3 8 0 15 5 17 5
2 12 21 15 43 2 21 10 45 16 53 7 8 8 16 2 20 -12 9 -17 35 -5 28 5 -4 12 -2
16 4 3 5 1 10 -6 10 -7 0 -4 7 7 16 10 8 13 13 7 9 -16 -7 -17 11 -3 20 8 5 7
12 -2 23 -7 9 -8 13 -2 9 12 -7 17 13 29 108 3 22 6 47 7 55 0 8 5 21 11 28 6
8 6 12 -2 12 -6 0 -11 5 -11 11 0 5 4 8 9 5 5 -3 9 10 9 30 0 20 6 40 14 45
10 7 10 9 -2 9 -12 0 -13 2 -1 9 11 7 11 9 0 14 -11 3 -11 7 -2 17 6 7 9 19 6
26 -3 8 1 14 8 14 10 0 10 3 1 12 -15 15 -16 32 -2 23 6 -3 10 1 10 10 0 10
-5 13 -12 9 -9 -5 -9 -2 1 9 7 9 10 17 5 17 -5 0 -2 5 6 10 12 8 12 10 1 10
-11 0 -11 3 0 17 12 15 12 16 -1 8 -12 -7 -13 -6 -3 6 10 12 10 18 0 29 -9 10
-9 11 1 6 9 -6 11 -1 8 18 -3 14 0 26 5 26 6 0 6 8 -1 20 -8 15 -8 20 2 20 9
0 9 3 -2 10 -12 8 -12 10 -1 10 11 0 11 3 0 17 -12 15 -12 16 5 10 14 -6 17
-4 10 5 -14 19 -18 72 -5 64 8 -5 8 1 1 19 -13 34 -13 38 3 29 9 -6 9 -4 -1 8
-10 13 -10 17 0 21 11 5 11 7 0 15 -15 10 -5 45 10 36 7 -5 7 -1 1 11 -6 10
-8 27 -6 39 4 17 3 18 -6 6 -6 -8 -11 -10 -11 -4 0 6 3 14 8 18 10 11 9 96 -2
96 -4 0 -3 7 5 16 10 13 10 17 -1 24 -11 7 -11 11 -1 24 11 13 11 16 0 16 -11
0 -11 2 1 10 9 6 11 10 3 10 -7 0 -10 7 -6 16 3 9 0 20 -8 25 -9 5 -9 9 -2 9
13 0 12 18 -1 39 -7 11 -5 13 9 7 15 -5 16 -4 5 9 -7 8 -10 24 -7 35 3 11 2
18 -3 15 -4 -3 -11 2 -14 11 -3 8 -2 12 4 9 6 -3 10 1 10 9 0 8 -5 18 -10 21
-8 5 -7 11 1 21 9 11 8 14 -2 14 -11 0 -11 2 1 10 8 5 10 10 5 10 -6 0 -11 9
-12 20 -1 13 3 18 10 14 7 -3 3 2 -7 10 -11 9 -14 16 -8 16 9 0 10 5 4 18 -5
9 -8 27 -7 40 1 12 -2 22 -6 22 -9 0 -6 20 5 39 6 9 5 12 -2 7 -6 -3 -13 -2
-17 4 -3 5 -2 10 3 10 6 0 8 9 5 20 -3 11 -10 20 -15 20 -7 0 -6 5 1 13 6 8 7
17 1 23 -5 5 -10 30 -11 57 -2 26 -6 47 -11 47 -4 0 -8 10 -8 23 0 49 -6 75
-20 92 -12 15 -12 17 -1 10 11 -6 12 -5 5 6 -5 8 -7 22 -6 32 2 9 -1 17 -6 17
-6 0 -9 12 -7 26 1 15 -3 28 -12 31 -12 5 -12 7 -1 14 7 5 8 9 2 9 -6 0 -11 6
-12 13 -3 25 -10 62 -12 62 -1 0 -4 11 -6 25 -2 13 -10 28 -17 32 -9 6 -8 8 3
8 11 1 10 4 -4 15 -14 11 -16 15 -5 15 12 0 12 2 0 9 -8 5 -16 18 -17 28 -6
43 -12 58 -24 55 -6 -1 -9 2 -5 8 9 14 -64 81 -96 88 -8 2 -15 8 -17 13 -2 5
-10 9 -18 9 -8 0 -14 4 -14 10 0 5 -7 7 -15 4 -8 -4 -15 -2 -15 4 0 9 -37 25
-52 23 -5 -1 -8 3 -8 9 0 5 -9 10 -20 10 -11 0 -20 4 -20 8 0 5 -6 9 -12 9
-21 1 -43 8 -49 15 -3 5 -17 9 -32 10 -15 1 -27 6 -27 9 0 6 -40 19 -70 24 -3
0 -11 4 -17 8 -7 5 -17 6 -22 3 -5 -4 -11 -2 -13 4 -1 5 -15 11 -30 12 -16 1
-28 5 -28 9 0 3 -6 6 -12 7 -40 5 -55 9 -66 16 -13 8 -52 15 -104 19 -14 1
-24 6 -20 11 3 5 -2 7 -11 3 -10 -3 -17 -2 -17 3 0 5 -8 9 -17 9 -47 2 -63 6
-63 14 0 5 -6 4 -14 -2 -10 -8 -16 -8 -24 2 -6 7 -24 13 -39 12 -15 0 -31 4
-35 9 -4 6 -13 4 -24 -5 -11 -9 -15 -9 -10 -1 4 6 4 12 -1 13 -4 0 -22 2 -38
3 -17 1 -36 5 -42 9 -7 4 -15 3 -18 -3 -5 -8 -11 -8 -19 -1 -7 6 -29 9 -49 8
-20 -2 -37 -1 -37 2 0 3 -21 5 -47 5 -27 -1 -56 3 -65 7 -10 6 -19 5 -23 -1
-4 -7 -13 -7 -26 0 -14 8 -19 7 -19 -2 0 -8 -3 -9 -8 -3 -11 15 -134 17 -126
2 3 -7 -2 -3 -10 7 -9 11 -16 16 -16 10 0 -5 -49 -8 -117 -7 -65 1 -118 3
-118 3 0 3 -306 5 -309 3z"/>
</g>
</svg>
